<svg width="24" height="25" viewBox="0 0 24 25" fill="none" xmlns="http://www.w3.org/2000/svg">
<path d="M9.97075 5.88511L10.573 7.55761C11.242 9.41386 12.7038 10.8756 14.56 11.5446L16.2325 12.1469C16.3833 12.2016 16.3833 12.4154 16.2325 12.4694L14.56 13.0716C12.7038 13.7406 11.242 15.2024 10.573 17.0586L9.97075 18.7311C9.916 18.8819 9.70225 18.8819 9.64825 18.7311L9.046 17.0586C8.377 15.2024 6.91525 13.7406 5.059 13.0716L3.3865 12.4694C3.23575 12.4146 3.23575 12.2009 3.3865 12.1469L5.059 11.5446C6.91525 10.8756 8.377 9.41386 9.046 7.55761L9.64825 5.88511C9.70225 5.73361 9.916 5.73361 9.97075 5.88511Z" fill="#072723"/>
<path d="M17.4993 1.8658L17.8045 2.71255C18.1435 3.6523 18.8838 4.39255 19.8235 4.73155L20.6703 5.0368C20.7468 5.06455 20.7468 5.17255 20.6703 5.2003L19.8235 5.50555C18.8838 5.84455 18.1435 6.5848 17.8045 7.52455L17.4993 8.3713C17.4715 8.4478 17.3635 8.4478 17.3358 8.3713L17.0305 7.52455C16.6915 6.5848 15.9513 5.84455 15.0115 5.50555L14.1648 5.2003C14.0883 5.17255 14.0883 5.06455 14.1648 5.0368L15.0115 4.73155C15.9513 4.39255 16.6915 3.6523 17.0305 2.71255L17.3358 1.8658C17.3635 1.78855 17.4723 1.78855 17.4993 1.8658Z" fill="#072723"/>
<path d="M17.4993 16.2456L17.8045 17.0924C18.1435 18.0321 18.8838 18.7724 19.8235 19.1114L20.6703 19.4166C20.7468 19.4444 20.7468 19.5524 20.6703 19.5801L19.8235 19.8854C18.8838 20.2244 18.1435 20.9646 17.8045 21.9044L17.4993 22.7511C17.4715 22.8276 17.3635 22.8276 17.3358 22.7511L17.0305 21.9044C16.6915 20.9646 15.9513 20.2244 15.0115 19.8854L14.1648 19.5801C14.0883 19.5524 14.0883 19.4444 14.1648 19.4166L15.0115 19.1114C15.9513 18.7724 16.6915 18.0321 17.0305 17.0924L17.3358 16.2456C17.3635 16.1691 17.4723 16.1691 17.4993 16.2456Z" fill="#072723"/>
</svg>
