<svg width="24" height="25" viewBox="0 0 24 25" fill="none" xmlns="http://www.w3.org/2000/svg">
<path d="M9.8667 7.81152C10.6114 9.87786 12.2389 11.5053 14.3052 12.25L14.4663 12.3076L14.3052 12.3662C12.2389 13.111 10.6114 14.7384 9.8667 16.8047L9.80811 16.9639L9.75146 16.8047C9.00676 14.7384 7.37925 13.111 5.31299 12.3662L5.15088 12.3076L5.31299 12.25C7.37925 11.5052 9.00676 9.87782 9.75146 7.81152L9.80811 7.65137L9.8667 7.81152Z" stroke="#F2FCE7" stroke-width="1.5"/>
<path d="M17.4165 3.09302C17.8065 4.0031 18.5328 4.72839 19.4429 5.11841C18.5331 5.50827 17.8066 6.23321 17.4165 7.14282C17.0262 6.23308 16.3002 5.50811 15.3901 5.11841C16.3005 4.72854 17.0263 4.00322 17.4165 3.09302Z" stroke="#F2FCE7"/>
<path d="M17.4165 17.4734C17.8063 18.3826 18.5318 19.1077 19.4409 19.4978C18.532 19.8878 17.8065 20.6133 17.4165 21.5222C17.0264 20.6131 16.3013 19.8876 15.3921 19.4978C16.3015 19.1078 17.0265 18.3828 17.4165 17.4734Z" stroke="#F2FCE7"/>
</svg>
