<svg width="30" height="31" viewBox="0 0 30 31" fill="none" xmlns="http://www.w3.org/2000/svg">
<g clip-path="url(#clip0_41_15618)">
<path fill-rule="evenodd" clip-rule="evenodd" d="M18.5164 9.09285C17.9661 9.09285 17.3168 9.22116 16.5685 9.47778C15.8202 9.73452 15.281 9.86296 14.9508 9.8631C14.694 9.8631 14.175 9.74934 13.3937 9.52184C12.6124 9.29433 11.9466 9.18057 11.3963 9.18057C10.1051 9.18057 9.03583 9.72358 8.18846 10.8096C7.34111 11.8951 6.91744 13.2999 6.91744 15.0241C6.92076 15.9785 7.0616 16.9274 7.3356 17.8415C7.63714 18.8405 8.05449 19.8007 8.57914 20.7026C9.1367 21.6784 9.69794 22.4101 10.2629 22.898C10.8277 23.3859 11.3963 23.6298 11.9686 23.6298C12.3501 23.6298 12.8471 23.5032 13.4597 23.2501C14.0723 22.9969 14.6097 22.8704 15.0719 22.8704C15.5341 22.8704 16.1008 22.9915 16.7721 23.2337C17.4434 23.476 17.9698 23.5971 18.3513 23.597C18.8355 23.597 19.3197 23.4135 19.8039 23.0466C20.288 22.6797 20.7722 22.1258 21.2565 21.3848C21.5629 20.9219 21.8404 20.4404 22.0873 19.9432C22.3093 19.4966 22.4952 19.0328 22.6431 18.5565C21.9754 18.3586 21.3812 17.8855 20.8603 17.137C20.3427 16.3995 20.0694 15.5182 20.079 14.6172C20.0811 14.006 20.2183 13.4028 20.4807 12.8508C20.7484 12.2748 21.2895 11.6421 22.1038 10.9526C21.583 10.3069 21.0327 9.83549 20.4532 9.53828C19.8527 9.23633 19.1884 9.08353 18.5164 9.09285ZM18.3293 4.84509C17.0161 5.1455 16.0751 5.70306 15.5066 6.51776C14.938 7.33206 14.6464 8.29671 14.6318 9.41171C15.204 9.38247 15.6625 9.29075 16.0074 9.13653C16.3864 8.95836 16.7295 8.71223 17.0197 8.41035C17.4717 7.97087 17.8276 7.44253 18.0652 6.85865C18.2853 6.30109 18.3954 5.7876 18.3954 5.31816C18.3954 5.24486 18.3917 5.17156 18.3843 5.09785C18.3743 5.012 18.3559 4.92734 18.3293 4.84509ZM15 1.00269C23.0189 1.00269 29.5195 7.50308 29.5195 15.5224C29.5195 23.5413 23.0189 30.0417 15 30.0417C6.98109 30.0417 0.480469 23.5413 0.480469 15.5224C0.480469 7.5031 6.98108 1.00269 15 1.00269Z" fill="url(#paint0_linear_41_15618)"/>
</g>
<defs>
<linearGradient id="paint0_linear_41_15618" x1="14.9999" y1="39.5" x2="14.9995" y2="-1.00007" gradientUnits="userSpaceOnUse">
<stop stop-color="#B0ED56"/>
<stop offset="0.639423" stop-color="#072723"/>
</linearGradient>
<clipPath id="clip0_41_15618">
<rect width="30" height="30" fill="white" transform="translate(0 0.5)"/>
</clipPath>
</defs>
</svg>
