<svg width="24" height="25" viewBox="0 0 24 25" fill="none" xmlns="http://www.w3.org/2000/svg">
<path d="M8.67 14.3082H4C2.9 14.3082 2 15.2082 2 16.3082V22.3082H8.67V14.3082Z" stroke="#F2FCE7" stroke-width="1.5" stroke-miterlimit="10" stroke-linecap="round" stroke-linejoin="round"/>
<path d="M13.3302 10.3082H10.6602C9.56016 10.3082 8.66016 11.2082 8.66016 12.3082V22.3082H15.3302V12.3082C15.3302 11.2082 14.4402 10.3082 13.3302 10.3082Z" stroke="#F2FCE7" stroke-width="1.5" stroke-miterlimit="10" stroke-linecap="round" stroke-linejoin="round"/>
<path d="M20.0001 17.3082H15.3301V22.3082H22.0001V19.3082C22.0001 18.2082 21.1001 17.3082 20.0001 17.3082Z" stroke="#F2FCE7" stroke-width="1.5" stroke-miterlimit="10" stroke-linecap="round" stroke-linejoin="round"/>
<path d="M12.5202 2.37817L13.0502 3.43817C13.1202 3.58817 13.3102 3.72817 13.4702 3.74817L14.4302 3.90817C15.0402 4.00817 15.1902 4.45815 14.7502 4.88815L14.0002 5.63815C13.8702 5.76815 13.8002 6.00816 13.8402 6.17816L14.0502 7.09817C14.2202 7.82817 13.8302 8.10818 13.1902 7.72818L12.2902 7.19818C12.1302 7.09818 11.8602 7.09818 11.7002 7.19818L10.8002 7.72818C10.1602 8.10818 9.77023 7.82817 9.94023 7.09817L10.1502 6.17816C10.1902 6.00816 10.1202 5.75815 9.99023 5.63815L9.25023 4.89816C8.81023 4.45816 8.95023 4.01815 9.57023 3.91815L10.5302 3.75818C10.6902 3.72818 10.8802 3.58818 10.9502 3.44818L11.4802 2.38815C11.7702 1.80815 12.2302 1.80817 12.5202 2.37817Z" stroke="#F2FCE7" stroke-width="1.5" stroke-linecap="round" stroke-linejoin="round"/>
</svg>
