<svg width="45" height="44" viewBox="0 0 45 44" fill="none" xmlns="http://www.w3.org/2000/svg">
<rect x="0.199997" width="44" height="44" rx="22" fill="#F2FCE7"/>
<path d="M13.8667 24.7417V16.7583C13.8667 15.65 14.5083 15.3833 15.2917 16.1667L17.45 18.325C17.775 18.65 18.3083 18.65 18.625 18.325L21.6083 15.3333C21.9333 15.0083 22.4667 15.0083 22.7833 15.3333L25.775 18.325C26.1 18.65 26.6333 18.65 26.95 18.325L29.1083 16.1667C29.8917 15.3833 30.5333 15.65 30.5333 16.7583V24.75C30.5333 27.25 28.8667 28.9167 26.3667 28.9167H18.0333C15.7333 28.9083 13.8667 27.0417 13.8667 24.7417Z" stroke="#292D32" stroke-width="1.5" stroke-linecap="round" stroke-linejoin="round"/>
</svg>
