<svg width="24" height="25" viewBox="0 0 24 25" fill="none" xmlns="http://www.w3.org/2000/svg">
<path d="M5.16699 4.3241H10.167C10.8016 4.32435 11.3174 4.84095 11.3174 5.47546V8.47546C11.3171 9.10991 10.8014 9.62561 10.167 9.62585H5.16699C4.53246 9.62585 4.01586 9.11006 4.01562 8.47546V5.47546C4.01562 4.84079 4.53232 4.3241 5.16699 4.3241Z" fill="#072723" stroke="#072723" stroke-width="0.0312495"/>
<path d="M5.16699 10.9906H10.167C10.8016 10.9909 11.3174 11.5073 11.3174 12.142V19.142C11.3172 19.7763 10.8015 20.2921 10.167 20.2924H5.16699C4.53244 20.2924 4.01582 19.7765 4.01562 19.142V12.142C4.01562 11.5072 4.53232 10.9906 5.16699 10.9906Z" fill="#072723" stroke="#072723" stroke-width="0.0312495"/>
<path d="M13.8336 14.9906H18.8336C19.4681 14.9908 19.9839 15.5073 19.9839 16.142V19.142C19.9838 19.7764 19.468 20.2922 18.8336 20.2924H13.8336C13.1989 20.2924 12.6824 19.7765 12.6822 19.142V16.142C12.6822 15.5072 13.1988 14.9906 13.8336 14.9906Z" fill="#072723" stroke="#072723" stroke-width="0.0312495"/>
<path d="M13.8336 4.3241H18.8336C19.4681 4.32428 19.9839 4.84091 19.9839 5.47546V12.4745C19.9839 13.1092 19.4681 13.6257 18.8336 13.6259H13.8336C13.1988 13.6259 12.6822 13.1093 12.6822 12.4745V5.47546C12.6822 4.84079 13.1988 4.3241 13.8336 4.3241Z" fill="#072723" stroke="#072723" stroke-width="0.0312495"/>
</svg>
