<svg width="24" height="25" viewBox="0 0 24 25" fill="none" xmlns="http://www.w3.org/2000/svg">
<path d="M5.16699 5.05847H10.167C10.396 5.05872 10.583 5.24658 10.583 5.47546V8.47546C10.5828 8.70432 10.3958 8.89123 10.167 8.89148H5.16699C4.9381 8.89148 4.75023 8.70453 4.75 8.47546V5.47546C4.75 5.24638 4.9379 5.05847 5.16699 5.05847Z" stroke="#F2FCE7" stroke-width="1.5"/>
<path d="M5.16699 11.725H10.167C10.396 11.7252 10.583 11.9129 10.583 12.142V19.142C10.5828 19.3707 10.3959 19.5577 10.167 19.558H5.16699C4.93803 19.558 4.7502 19.3709 4.75 19.142V12.142C4.75 11.9127 4.93796 11.725 5.16699 11.725Z" stroke="#F2FCE7" stroke-width="1.5"/>
<path d="M13.8335 15.725H18.8335C19.0624 15.7252 19.2495 15.9128 19.2495 16.142V19.142C19.2493 19.3708 19.0623 19.5578 18.8335 19.558H13.8335C13.6043 19.558 13.4167 19.3709 13.4165 19.142V16.142C13.4165 15.9128 13.6043 15.725 13.8335 15.725Z" stroke="#F2FCE7" stroke-width="1.5"/>
<path d="M13.8335 5.05847H18.8335C19.0624 5.05866 19.2495 5.24649 19.2495 5.47546V12.4745C19.2495 12.7036 19.0624 12.8913 18.8335 12.8915H13.8335C13.6043 12.8915 13.4165 12.7037 13.4165 12.4745V5.47546C13.4165 5.24643 13.6042 5.05847 13.8335 5.05847Z" stroke="#F2FCE7" stroke-width="1.5"/>
</svg>
