<svg width="45" height="44" viewBox="0 0 45 44" fill="none" xmlns="http://www.w3.org/2000/svg">
<rect x="0.400024" width="44" height="44" rx="22" fill="#F2FCE7"/>
<path d="M19.625 23.6666H15.7333C14.8167 23.6666 14.0667 24.4166 14.0667 25.3333V30.3333H19.625V23.6666Z" stroke="#292D32" stroke-width="1.5" stroke-miterlimit="10" stroke-linecap="round" stroke-linejoin="round"/>
<path d="M23.5084 20.3334H21.2834C20.3667 20.3334 19.6167 21.0834 19.6167 22V30.3334H25.175V22C25.175 21.0834 24.4334 20.3334 23.5084 20.3334Z" stroke="#292D32" stroke-width="1.5" stroke-miterlimit="10" stroke-linecap="round" stroke-linejoin="round"/>
<path d="M29.0667 26.1666H25.175V30.3333H30.7334V27.8333C30.7334 26.9166 29.9834 26.1666 29.0667 26.1666Z" stroke="#292D32" stroke-width="1.5" stroke-miterlimit="10" stroke-linecap="round" stroke-linejoin="round"/>
<path d="M22.8334 13.725L23.275 14.6083C23.3334 14.7333 23.4917 14.85 23.625 14.8666L24.425 15C24.9334 15.0833 25.0584 15.4583 24.6917 15.8166L24.0667 16.4416C23.9584 16.55 23.9 16.75 23.9334 16.8916L24.1084 17.6583C24.25 18.2666 23.925 18.5 23.3917 18.1833L22.6417 17.7416C22.5084 17.6583 22.2834 17.6583 22.15 17.7416L21.4 18.1833C20.8667 18.5 20.5417 18.2666 20.6834 17.6583L20.8584 16.8916C20.8917 16.75 20.8334 16.5416 20.725 16.4416L20.1084 15.825C19.7417 15.4583 19.8584 15.0916 20.375 15.0083L21.175 14.875C21.3084 14.85 21.4667 14.7333 21.525 14.6166L21.9667 13.7333C22.2084 13.25 22.5917 13.25 22.8334 13.725Z" stroke="#292D32" stroke-width="1.5" stroke-linecap="round" stroke-linejoin="round"/>
</svg>
