<svg width="40" height="40" viewBox="0 0 40 40" fill="none" xmlns="http://www.w3.org/2000/svg">
<rect width="40" height="40" rx="20" fill="#F2FCE7"/>
<path d="M16.97 30H22.97C27.97 30 29.97 28 29.97 23V17C29.97 12 27.97 10 22.97 10H16.97C11.97 10 9.96997 12 9.96997 17V23C9.96997 28 11.97 30 16.97 30Z" stroke="#072723" stroke-width="2" stroke-linecap="round" stroke-linejoin="round"/>
<path d="M9.96997 20.7001L15.97 20.6801C16.72 20.6801 17.56 21.2501 17.84 21.9501L18.98 24.8301C19.24 25.4801 19.65 25.4801 19.91 24.8301L22.2 19.0201C22.42 18.4601 22.83 18.4401 23.11 18.9701L24.15 20.9401C24.46 21.5301 25.26 22.0101 25.92 22.0101H29.98" stroke="#072723" stroke-width="2" stroke-linecap="round" stroke-linejoin="round"/>
</svg>
