<svg width="178" height="44" viewBox="0 0 178 44" fill="none" xmlns="http://www.w3.org/2000/svg">
<g clip-path="url(#clip0_207_1109)">
<path d="M6.85122 35.3082V30.2365H16.1156C18.0691 30.2365 19.5643 29.8458 20.6012 29.0644C21.6381 28.2679 22.1566 27.1183 22.1566 25.6156V25.5705C22.1566 24.5787 21.9161 23.7447 21.4352 23.0685C20.9544 22.3772 20.2406 21.8588 19.2938 21.5131C18.3622 21.1675 17.205 20.9947 15.8225 20.9947H6.85122V16.3738H15.0111C16.9346 16.3738 18.3922 15.9906 19.384 15.2242C20.3908 14.4428 20.8943 13.3533 20.8943 11.9558V11.9107C20.8943 10.6183 20.4509 9.61902 19.5643 8.91273C18.6777 8.19142 17.438 7.83077 15.8451 7.83077H6.85122V2.78159H17.6033C19.662 2.78159 21.4352 3.11219 22.9229 3.77339C24.4106 4.43459 25.5602 5.38131 26.3717 6.61355C27.1832 7.83077 27.5889 9.27339 27.5889 10.9414V10.9865C27.5889 12.1737 27.3109 13.2782 26.7549 14.3C26.2139 15.3069 25.4701 16.1484 24.5234 16.8246C23.5766 17.4858 22.5022 17.8991 21.3 18.0644V18.1996C22.8178 18.3048 24.1627 18.7105 25.3348 19.4168C26.507 20.1081 27.4236 21.0248 28.0848 22.1668C28.7611 23.2939 29.0992 24.5712 29.0992 25.9988V26.0439C29.0992 27.9373 28.6408 29.5753 27.7242 30.9578C26.8225 32.3403 25.5302 33.4148 23.8471 34.1812C22.1791 34.9325 20.1805 35.3082 17.8512 35.3082H6.85122ZM3.44753 35.3082V2.78159H10.2549V35.3082H3.44753ZM32.5479 35.3082V11.1443H39.1299V35.3082H32.5479ZM35.8389 8.03364C34.8471 8.03364 34.0131 7.69552 33.3369 7.01929C32.6606 6.34306 32.3225 5.5391 32.3225 4.60741C32.3225 3.66069 32.6606 2.85672 33.3369 2.19552C34.0131 1.51929 34.8471 1.18118 35.8389 1.18118C36.8307 1.18118 37.6647 1.51929 38.341 2.19552C39.0172 2.85672 39.3553 3.66069 39.3553 4.60741C39.3553 5.5391 39.0172 6.34306 38.341 7.01929C37.6647 7.69552 36.8307 8.03364 35.8389 8.03364ZM54.6381 35.8041C52.1887 35.8041 50.0698 35.3007 48.2816 34.2939C46.4933 33.2871 45.1108 31.8444 44.134 29.966C43.1572 28.0876 42.6688 25.841 42.6688 23.2263V23.1812C42.6688 20.5815 43.1647 18.3499 44.1566 16.4865C45.1484 14.6081 46.5384 13.1655 48.3266 12.1586C50.1149 11.1518 52.2112 10.6484 54.6156 10.6484C57.035 10.6484 59.1388 11.1518 60.927 12.1586C62.7303 13.1504 64.1279 14.5855 65.1197 16.464C66.1115 18.3274 66.6074 20.5664 66.6074 23.1812V23.2263C66.6074 25.856 66.1115 28.1101 65.1197 29.9886C64.1429 31.867 62.7604 33.3096 60.9721 34.3164C59.1839 35.3082 57.0725 35.8041 54.6381 35.8041ZM54.6607 30.6422C55.7276 30.6422 56.6518 30.3567 57.4332 29.7857C58.2296 29.1996 58.8382 28.3581 59.259 27.2611C59.6948 26.1491 59.9127 24.8041 59.9127 23.2263V23.1812C59.9127 21.6183 59.6948 20.2884 59.259 19.1914C58.8232 18.0944 58.2071 17.2604 57.4107 16.6894C56.6142 16.1033 55.6825 15.8103 54.6156 15.8103C53.5637 15.8103 52.6395 16.1033 51.843 16.6894C51.0616 17.2604 50.453 18.0944 50.0172 19.1914C49.5814 20.2884 49.3635 21.6183 49.3635 23.1812V23.2263C49.3635 24.8041 49.5739 26.1491 49.9947 27.2611C50.4305 28.3581 51.0466 29.1996 51.843 29.7857C52.6395 30.3567 53.5787 30.6422 54.6607 30.6422Z" fill="#B0ED56"/>
</g>
<g clip-path="url(#clip1_207_1109)">
<path d="M6.85122 35.3082V30.2365H16.1156C18.0691 30.2365 19.5643 29.8458 20.6012 29.0644C21.6381 28.2679 22.1566 27.1183 22.1566 25.6156V25.5705C22.1566 24.5787 21.9161 23.7447 21.4352 23.0685C20.9544 22.3772 20.2406 21.8588 19.2938 21.5131C18.3622 21.1675 17.205 20.9947 15.8225 20.9947H6.85122V16.3738H15.0111C16.9346 16.3738 18.3922 15.9906 19.384 15.2242C20.3908 14.4428 20.8943 13.3533 20.8943 11.9558V11.9107C20.8943 10.6183 20.4509 9.61902 19.5643 8.91273C18.6777 8.19142 17.438 7.83077 15.8451 7.83077H6.85122V2.78159H17.6033C19.662 2.78159 21.4352 3.11219 22.9229 3.77339C24.4106 4.43459 25.5602 5.38131 26.3717 6.61355C27.1832 7.83077 27.5889 9.27339 27.5889 10.9414V10.9865C27.5889 12.1737 27.3109 13.2782 26.7549 14.3C26.2139 15.3069 25.4701 16.1484 24.5234 16.8246C23.5766 17.4858 22.5022 17.8991 21.3 18.0644V18.1996C22.8178 18.3048 24.1627 18.7105 25.3348 19.4168C26.507 20.1081 27.4236 21.0248 28.0848 22.1668C28.7611 23.2939 29.0992 24.5712 29.0992 25.9988V26.0439C29.0992 27.9373 28.6408 29.5753 27.7242 30.9578C26.8225 32.3403 25.5302 33.4148 23.8471 34.1812C22.1791 34.9325 20.1805 35.3082 17.8512 35.3082H6.85122ZM3.44753 35.3082V2.78159H10.2549V35.3082H3.44753ZM32.5479 35.3082V11.1443H39.1299V35.3082H32.5479ZM35.8389 8.03364C34.8471 8.03364 34.0131 7.69552 33.3369 7.01929C32.6606 6.34306 32.3225 5.5391 32.3225 4.60741C32.3225 3.66069 32.6606 2.85672 33.3369 2.19552C34.0131 1.51929 34.8471 1.18118 35.8389 1.18118C36.8307 1.18118 37.6647 1.51929 38.341 2.19552C39.0172 2.85672 39.3553 3.66069 39.3553 4.60741C39.3553 5.5391 39.0172 6.34306 38.341 7.01929C37.6647 7.69552 36.8307 8.03364 35.8389 8.03364ZM54.6381 35.8041C52.1887 35.8041 50.0698 35.3007 48.2816 34.2939C46.4933 33.2871 45.1108 31.8444 44.134 29.966C43.1572 28.0876 42.6688 25.841 42.6688 23.2263V23.1812C42.6688 20.5815 43.1647 18.3499 44.1566 16.4865C45.1484 14.6081 46.5384 13.1655 48.3266 12.1586C50.1149 11.1518 52.2112 10.6484 54.6156 10.6484C57.035 10.6484 59.1388 11.1518 60.927 12.1586C62.7303 13.1504 64.1279 14.5855 65.1197 16.464C66.1115 18.3274 66.6074 20.5664 66.6074 23.1812V23.2263C66.6074 25.856 66.1115 28.1101 65.1197 29.9886C64.1429 31.867 62.7604 33.3096 60.9721 34.3164C59.1839 35.3082 57.0725 35.8041 54.6381 35.8041ZM54.6607 30.6422C55.7276 30.6422 56.6518 30.3567 57.4332 29.7857C58.2296 29.1996 58.8382 28.3581 59.259 27.2611C59.6948 26.1491 59.9127 24.8041 59.9127 23.2263V23.1812C59.9127 21.6183 59.6948 20.2884 59.259 19.1914C58.8232 18.0944 58.2071 17.2604 57.4107 16.6894C56.6142 16.1033 55.6825 15.8103 54.6156 15.8103C53.5637 15.8103 52.6395 16.1033 51.843 16.6894C51.0616 17.2604 50.453 18.0944 50.0172 19.1914C49.5814 20.2884 49.3635 21.6183 49.3635 23.1812V23.2263C49.3635 24.8041 49.5739 26.1491 49.9947 27.2611C50.4305 28.3581 51.0466 29.1996 51.843 29.7857C52.6395 30.3567 53.5787 30.6422 54.6607 30.6422Z" fill="#B0ED56"/>
</g>
<g clip-path="url(#clip2_207_1109)">
<path d="M6.85122 35.3082V30.2365H16.1156C18.0691 30.2365 19.5643 29.8458 20.6012 29.0644C21.6381 28.2679 22.1566 27.1183 22.1566 25.6156V25.5705C22.1566 24.5787 21.9161 23.7447 21.4352 23.0685C20.9544 22.3772 20.2406 21.8588 19.2938 21.5131C18.3622 21.1675 17.205 20.9947 15.8225 20.9947H6.85122V16.3738H15.0111C16.9346 16.3738 18.3922 15.9906 19.384 15.2242C20.3908 14.4428 20.8943 13.3533 20.8943 11.9558V11.9107C20.8943 10.6183 20.4509 9.61902 19.5643 8.91273C18.6777 8.19142 17.438 7.83077 15.8451 7.83077H6.85122V2.78159H17.6033C19.662 2.78159 21.4352 3.11219 22.9229 3.77339C24.4106 4.43459 25.5602 5.38131 26.3717 6.61355C27.1832 7.83077 27.5889 9.27339 27.5889 10.9414V10.9865C27.5889 12.1737 27.3109 13.2782 26.7549 14.3C26.2139 15.3069 25.4701 16.1484 24.5234 16.8246C23.5766 17.4858 22.5022 17.8991 21.3 18.0644V18.1996C22.8178 18.3048 24.1627 18.7105 25.3348 19.4168C26.507 20.1081 27.4236 21.0248 28.0848 22.1668C28.7611 23.2939 29.0992 24.5712 29.0992 25.9988V26.0439C29.0992 27.9373 28.6408 29.5753 27.7242 30.9578C26.8225 32.3403 25.5302 33.4148 23.8471 34.1812C22.1791 34.9325 20.1805 35.3082 17.8512 35.3082H6.85122ZM3.44753 35.3082V2.78159H10.2549V35.3082H3.44753ZM32.5479 35.3082V11.1443H39.1299V35.3082H32.5479ZM35.8389 8.03364C34.8471 8.03364 34.0131 7.69552 33.3369 7.01929C32.6606 6.34306 32.3225 5.5391 32.3225 4.60741C32.3225 3.66069 32.6606 2.85672 33.3369 2.19552C34.0131 1.51929 34.8471 1.18118 35.8389 1.18118C36.8307 1.18118 37.6647 1.51929 38.341 2.19552C39.0172 2.85672 39.3553 3.66069 39.3553 4.60741C39.3553 5.5391 39.0172 6.34306 38.341 7.01929C37.6647 7.69552 36.8307 8.03364 35.8389 8.03364ZM54.6381 35.8041C52.1887 35.8041 50.0698 35.3007 48.2816 34.2939C46.4933 33.2871 45.1108 31.8444 44.134 29.966C43.1572 28.0876 42.6688 25.841 42.6688 23.2263V23.1812C42.6688 20.5815 43.1647 18.3499 44.1566 16.4865C45.1484 14.6081 46.5384 13.1655 48.3266 12.1586C50.1149 11.1518 52.2112 10.6484 54.6156 10.6484C57.035 10.6484 59.1388 11.1518 60.927 12.1586C62.7303 13.1504 64.1279 14.5855 65.1197 16.464C66.1115 18.3274 66.6074 20.5664 66.6074 23.1812V23.2263C66.6074 25.856 66.1115 28.1101 65.1197 29.9886C64.1429 31.867 62.7604 33.3096 60.9721 34.3164C59.1839 35.3082 57.0725 35.8041 54.6381 35.8041ZM54.6607 30.6422C55.7276 30.6422 56.6518 30.3567 57.4332 29.7857C58.2296 29.1996 58.8382 28.3581 59.259 27.2611C59.6948 26.1491 59.9127 24.8041 59.9127 23.2263V23.1812C59.9127 21.6183 59.6948 20.2884 59.259 19.1914C58.8232 18.0944 58.2071 17.2604 57.4107 16.6894C56.6142 16.1033 55.6825 15.8103 54.6156 15.8103C53.5637 15.8103 52.6395 16.1033 51.843 16.6894C51.0616 17.2604 50.453 18.0944 50.0172 19.1914C49.5814 20.2884 49.3635 21.6183 49.3635 23.1812V23.2263C49.3635 24.8041 49.5739 26.1491 49.9947 27.2611C50.4305 28.3581 51.0466 29.1996 51.843 29.7857C52.6395 30.3567 53.5787 30.6422 54.6607 30.6422Z" fill="#B0ED56"/>
</g>
<g clip-path="url(#clip3_207_1109)">
<path d="M6.85119 35.3082V30.2365H16.1155C18.0691 30.2365 19.5643 29.8458 20.6012 29.0644C21.6381 28.2679 22.1565 27.1183 22.1565 25.6156V25.5705C22.1565 24.5787 21.9161 23.7447 21.4352 23.0685C20.9543 22.3772 20.2405 21.8588 19.2938 21.5131C18.3621 21.1675 17.205 20.9947 15.8225 20.9947H6.85119V16.3738H15.011C16.9345 16.3738 18.3922 15.9906 19.384 15.2242C20.3908 14.4428 20.8942 13.3533 20.8942 11.9558V11.9107C20.8942 10.6183 20.4509 9.61902 19.5643 8.91273C18.6777 8.19142 17.4379 7.83077 15.845 7.83077H6.85119V2.78159H17.6032C19.662 2.78159 21.4352 3.11219 22.9229 3.77339C24.4106 4.43459 25.5602 5.38131 26.3717 6.61355C27.1832 7.83077 27.5889 9.27339 27.5889 10.9414V10.9865C27.5889 12.1737 27.3109 13.2782 26.7549 14.3C26.2139 15.3069 25.47 16.1484 24.5233 16.8246C23.5766 17.4858 22.5021 17.8991 21.3 18.0644V18.1996C22.8177 18.3048 24.1627 18.7105 25.3348 19.4168C26.5069 20.1081 27.4236 21.0248 28.0848 22.1668C28.761 23.2939 29.0991 24.5712 29.0991 25.9988V26.0439C29.0991 27.9373 28.6408 29.5753 27.7241 30.9578C26.8225 32.3403 25.5302 33.4148 23.8471 34.1812C22.1791 34.9325 20.1804 35.3082 17.8512 35.3082H6.85119ZM3.4475 35.3082V2.78159H10.2549V35.3082H3.4475ZM32.5479 35.3082V11.1443H39.1299V35.3082H32.5479ZM35.8389 8.03364C34.8471 8.03364 34.0131 7.69552 33.3368 7.01929C32.6606 6.34306 32.3225 5.5391 32.3225 4.60741C32.3225 3.66069 32.6606 2.85672 33.3368 2.19552C34.0131 1.51929 34.8471 1.18118 35.8389 1.18118C36.8307 1.18118 37.6647 1.51929 38.3409 2.19552C39.0172 2.85672 39.3553 3.66069 39.3553 4.60741C39.3553 5.5391 39.0172 6.34306 38.3409 7.01929C37.6647 7.69552 36.8307 8.03364 35.8389 8.03364ZM54.6381 35.8041C52.1886 35.8041 50.0698 35.3007 48.2815 34.2939C46.4933 33.2871 45.1108 31.8444 44.134 29.966C43.1572 28.0876 42.6688 25.841 42.6688 23.2263V23.1812C42.6688 20.5815 43.1647 18.3499 44.1565 16.4865C45.1483 14.6081 46.5384 13.1655 48.3266 12.1586C50.1149 11.1518 52.2112 10.6484 54.6155 10.6484C57.0349 10.6484 59.1388 11.1518 60.927 12.1586C62.7303 13.1504 64.1278 14.5855 65.1196 16.464C66.1114 18.3274 66.6073 20.5664 66.6073 23.1812V23.2263C66.6073 25.856 66.1114 28.1101 65.1196 29.9886C64.1429 31.867 62.7603 33.3096 60.9721 34.3164C59.1838 35.3082 57.0725 35.8041 54.6381 35.8041ZM54.6606 30.6422C55.7276 30.6422 56.6517 30.3567 57.4332 29.7857C58.2296 29.1996 58.8382 28.3581 59.259 27.2611C59.6948 26.1491 59.9127 24.8041 59.9127 23.2263V23.1812C59.9127 21.6183 59.6948 20.2884 59.259 19.1914C58.8232 18.0944 58.2071 17.2604 57.4106 16.6894C56.6142 16.1033 55.6825 15.8103 54.6155 15.8103C53.5636 15.8103 52.6394 16.1033 51.843 16.6894C51.0616 17.2604 50.453 18.0944 50.0172 19.1914C49.5814 20.2884 49.3635 21.6183 49.3635 23.1812V23.2263C49.3635 24.8041 49.5739 26.1491 49.9946 27.2611C50.4304 28.3581 51.0465 29.1996 51.843 29.7857C52.6394 30.3567 53.5787 30.6422 54.6606 30.6422Z" fill="#B0ED56"/>
</g>
<path d="M82.8414 35.8718C80.2717 35.8718 78.0251 35.4961 76.1016 34.7447C74.1932 33.9783 72.6904 32.8888 71.5935 31.4763C70.4965 30.0487 69.8803 28.3355 69.7451 26.3369L69.7225 25.9763H76.1467L76.1918 26.2242C76.3421 27.0657 76.7178 27.7946 77.3189 28.4107C77.935 29.0118 78.7314 29.4851 79.7082 29.8308C80.685 30.1614 81.7895 30.3267 83.0217 30.3267C84.284 30.3267 85.366 30.1614 86.2676 29.8308C87.1843 29.4851 87.8906 29.0043 88.3865 28.3881C88.8974 27.757 89.1529 27.0282 89.1529 26.2017V26.1791C89.1529 25.0821 88.7171 24.2256 87.8455 23.6095C86.9889 22.9783 85.5463 22.4524 83.5176 22.0316L80.0914 21.3554C76.8906 20.7092 74.4787 19.6197 72.8557 18.0869C71.2328 16.5541 70.4213 14.563 70.4213 12.1136V12.091C70.4213 10.1074 70.9548 8.37926 72.0217 6.90659C73.0887 5.41888 74.5538 4.26929 76.4172 3.45782C78.2806 2.63131 80.4145 2.21806 82.8189 2.21806C85.3284 2.21806 87.4924 2.60877 89.3107 3.39019C91.144 4.17161 92.5716 5.27612 93.5935 6.70372C94.6153 8.13131 95.1788 9.79183 95.284 11.6853L95.3066 12.1136H88.8824L88.8598 11.8431C88.7396 10.9865 88.4165 10.2577 87.8906 9.65659C87.3646 9.04047 86.6659 8.56711 85.7943 8.2365C84.9377 7.9059 83.9459 7.7406 82.8189 7.7406C81.6618 7.7406 80.6624 7.91342 79.8209 8.25905C78.9794 8.58965 78.3332 9.04798 77.8824 9.63405C77.4466 10.2201 77.2287 10.9039 77.2287 11.6853V11.7078C77.2287 12.7297 77.6645 13.5562 78.5361 14.1873C79.4077 14.8185 80.7751 15.3219 82.6385 15.6976L86.0873 16.3963C88.3564 16.8472 90.2198 17.4708 91.6775 18.2672C93.1351 19.0637 94.2096 20.0705 94.9008 21.2877C95.6071 22.4899 95.9603 23.9401 95.9603 25.6381V25.6607C95.9603 27.7495 95.4343 29.5603 94.3824 31.0931C93.3455 32.6108 91.8428 33.7905 89.8742 34.632C87.9206 35.4585 85.5764 35.8718 82.8414 35.8718ZM99.5668 43.1976V11.1443H106.149V15.3595H106.307C106.742 14.3827 107.313 13.5412 108.02 12.8349C108.741 12.1286 109.575 11.5876 110.522 11.2119C111.483 10.8362 112.535 10.6484 113.677 10.6484C115.721 10.6484 117.479 11.1518 118.952 12.1586C120.425 13.1504 121.559 14.5855 122.356 16.464C123.152 18.3424 123.55 20.589 123.55 23.2037V23.2263C123.55 25.841 123.152 28.0876 122.356 29.966C121.574 31.8444 120.455 33.2871 118.997 34.2939C117.539 35.3007 115.796 35.8041 113.768 35.8041C112.626 35.8041 111.566 35.6163 110.589 35.2406C109.613 34.8649 108.764 34.339 108.042 33.6627C107.321 32.9715 106.735 32.145 106.284 31.1832H106.149V43.1976H99.5668ZM111.514 30.3492C112.611 30.3492 113.557 30.0637 114.354 29.4927C115.15 28.9066 115.766 28.0801 116.202 27.0131C116.638 25.9462 116.856 24.6839 116.856 23.2263V23.2037C116.856 21.731 116.638 20.4612 116.202 19.3943C115.766 18.3274 115.143 17.5159 114.331 16.9599C113.535 16.3888 112.596 16.1033 111.514 16.1033C110.447 16.1033 109.507 16.3963 108.696 16.9824C107.884 17.5534 107.253 18.3724 106.802 19.4394C106.352 20.4913 106.126 21.7536 106.126 23.2263V23.2488C106.126 24.6914 106.352 25.9462 106.802 27.0131C107.268 28.0801 107.899 28.9066 108.696 29.4927C109.507 30.0637 110.447 30.3492 111.514 30.3492ZM134.167 35.6914C132.559 35.6914 131.147 35.3834 129.93 34.7672C128.712 34.1361 127.758 33.272 127.067 32.175C126.391 31.063 126.052 29.8007 126.052 28.3881V28.3431C126.052 26.8704 126.421 25.6156 127.157 24.5787C127.893 23.5268 128.96 22.7003 130.358 22.0992C131.755 21.4981 133.453 21.1299 135.452 20.9947L144.874 20.4086V24.5111L136.444 25.0521C135.182 25.1272 134.22 25.4278 133.559 25.9537C132.897 26.4646 132.567 27.1484 132.567 28.0049V28.05C132.567 28.9366 132.905 29.6354 133.581 30.1463C134.257 30.6422 135.167 30.8902 136.309 30.8902C137.285 30.8902 138.157 30.7024 138.923 30.3267C139.705 29.936 140.313 29.41 140.749 28.7488C141.2 28.0726 141.425 27.3137 141.425 26.4722V19.1463C141.425 18.0794 141.087 17.2379 140.411 16.6218C139.735 15.9906 138.751 15.675 137.458 15.675C136.226 15.675 135.249 15.9305 134.528 16.4414C133.807 16.9524 133.363 17.5985 133.198 18.3799L133.153 18.5828H127.134L127.157 18.3123C127.277 16.8246 127.766 15.5022 128.622 14.3451C129.494 13.188 130.696 12.2864 132.229 11.6402C133.777 10.979 135.61 10.6484 137.729 10.6484C139.817 10.6484 141.628 10.9865 143.161 11.6627C144.694 12.3239 145.881 13.2631 146.723 14.4804C147.579 15.6976 148.007 17.1177 148.007 18.7406V35.3082H141.425V31.7017H141.29C140.839 32.5282 140.253 33.242 139.532 33.8431C138.826 34.4291 138.022 34.8875 137.12 35.2181C136.218 35.5336 135.234 35.6914 134.167 35.6914ZM152.268 35.3082V11.1443H158.85V15.1115H158.985C159.616 13.729 160.548 12.6395 161.78 11.8431C163.012 11.0466 164.537 10.6484 166.356 10.6484C169.016 10.6484 171.067 11.4524 172.509 13.0603C173.967 14.6532 174.696 16.8697 174.696 19.7099V35.3082H168.114V21.0623C168.114 19.4845 167.738 18.2672 166.987 17.4107C166.251 16.5391 165.146 16.1033 163.673 16.1033C162.697 16.1033 161.848 16.3287 161.126 16.7795C160.405 17.2153 159.841 17.8315 159.436 18.6279C159.045 19.4243 158.85 20.356 158.85 21.423V35.3082H152.268Z" fill="#F2FCE7"/>
<defs>
<clipPath id="clip0_207_1109">
<rect width="9.23279" height="8.65574" fill="white" transform="translate(31.3262)"/>
</clipPath>
<clipPath id="clip1_207_1109">
<rect width="9.23279" height="24.8131" fill="white" transform="translate(31.3262 9.80981)"/>
</clipPath>
<clipPath id="clip2_207_1109">
<rect width="28.8525" height="32.3148" fill="white" transform="translate(0.742615 2.30823)"/>
</clipPath>
<clipPath id="clip3_207_1109">
<rect width="25.9672" height="32.3148" fill="white" transform="translate(41.7131 2.30823)"/>
</clipPath>
</defs>
</svg>
