<svg width="24" height="25" viewBox="0 0 24 25" fill="none" xmlns="http://www.w3.org/2000/svg">
<path d="M11.9999 23.0681C10.9099 23.0681 9.82992 22.748 8.97992 22.118L4.6799 18.9081C3.5399 18.0581 2.6499 16.288 2.6499 14.868V7.43805C2.6499 5.89805 3.77992 4.25805 5.22992 3.71805L10.2199 1.84806C11.2099 1.47806 12.7699 1.47806 13.7599 1.84806L18.7599 3.71805C20.2099 4.25805 21.3399 5.89805 21.3399 7.43805V14.868C21.3399 16.288 20.4499 18.0581 19.3099 18.9081L15.0099 22.118C14.1699 22.748 13.0899 23.0681 11.9999 23.0681ZM10.7499 3.24805L5.75992 5.11805C4.89992 5.43805 4.1499 6.51805 4.1499 7.43805V14.868C4.1499 15.818 4.81992 17.148 5.56992 17.708L9.8699 20.918C11.0199 21.778 12.9699 21.778 14.1199 20.918L18.4199 17.708C19.1799 17.138 19.8399 15.808 19.8399 14.868V7.43805C19.8399 6.52805 19.0899 5.44805 18.2299 5.11805L13.2399 3.24805C12.5799 2.99805 11.4199 2.99805 10.7499 3.24805Z" fill="#F2FCE7"/>
<path d="M11.9999 11.9783C11.9799 11.9783 11.9599 11.9783 11.9299 11.9783C10.4799 11.9383 9.41992 10.8283 9.41992 9.47827C9.41992 8.09827 10.5499 6.96826 11.9299 6.96826C13.3099 6.96826 14.4399 8.09827 14.4399 9.47827C14.4299 10.8383 13.3699 11.9383 12.0199 11.9883C12.0099 11.9783 12.0099 11.9783 11.9999 11.9783ZM11.9299 8.46826C11.3699 8.46826 10.9199 8.91827 10.9199 9.47827C10.9199 10.0283 11.3499 10.4683 11.8899 10.4883C11.8899 10.4883 11.9399 10.4883 11.9999 10.4883C12.5299 10.4583 12.9399 10.0183 12.9399 9.47827C12.9499 8.91827 12.4899 8.46826 11.9299 8.46826Z" fill="#F2FCE7"/>
<path d="M11.9998 17.6581C11.1398 17.6581 10.2698 17.4281 9.59982 16.9781C8.92982 16.5381 8.5498 15.8881 8.5498 15.1981C8.5498 14.5081 8.92982 13.8581 9.59982 13.4081C10.9498 12.5081 13.0598 12.5181 14.3998 13.4081C15.0698 13.8481 15.4498 14.4981 15.4498 15.1881C15.4498 15.8781 15.0698 16.5281 14.3998 16.9781C13.7298 17.4281 12.8598 17.6581 11.9998 17.6581ZM10.4298 14.6481C10.1798 14.8081 10.0398 15.0081 10.0498 15.1881C10.0498 15.3681 10.1898 15.5681 10.4298 15.7281C11.2698 16.2881 12.7298 16.2881 13.5698 15.7281C13.8198 15.5681 13.9598 15.3681 13.9598 15.1881C13.9598 15.0081 13.8198 14.8081 13.5798 14.6481C12.7398 14.0981 11.2698 14.0981 10.4298 14.6481Z" fill="#F2FCE7"/>
</svg>
