<svg width="24" height="25" viewBox="0 0 24 25" fill="none" xmlns="http://www.w3.org/2000/svg">
<path d="M12 2.81567C12.4453 2.81567 12.8715 2.87144 13.2002 2.97095L13.335 3.01685L18.3242 4.88599L18.3252 4.88696C18.7855 5.05915 19.2329 5.43123 19.5693 5.91333C19.8635 6.33498 20.0509 6.80868 20.0986 7.24927L20.1104 7.43677V14.8586C20.1102 15.3493 19.9439 15.9538 19.6543 16.5295C19.3647 17.1052 18.9773 17.6015 18.5811 17.8977L14.2812 21.1077L14.2793 21.1086C13.6763 21.5619 12.8546 21.803 12.0098 21.803C11.1649 21.8029 10.3432 21.5619 9.74023 21.1086L9.73926 21.1077L5.43945 17.8977C5.04311 17.6015 4.65484 17.1053 4.36523 16.5295C4.07573 15.9539 3.91026 15.3492 3.91016 14.8586V7.42798C3.91021 6.94032 4.10101 6.39245 4.43457 5.91138C4.76796 5.43062 5.21466 5.05918 5.6748 4.88696L5.67578 4.88599L10.666 3.01685L10.665 3.01587C11.007 2.88818 11.491 2.81569 12 2.81567ZM12.0049 12.6184C11.1343 12.6185 10.2378 12.8358 9.53418 13.301L9.5332 13.302C8.85585 13.7536 8.41992 14.4365 8.41992 15.1985V15.2073C8.43342 15.97 8.85244 16.6279 9.52832 17.0803V17.0813C10.2305 17.561 11.1354 17.7785 12 17.7786C12.8717 17.7786 13.7603 17.5475 14.4639 17.0862L14.4678 17.0842C15.146 16.632 15.5762 15.9523 15.5898 15.1975V15.1877C15.5897 14.4114 15.1502 13.7504 14.4775 13.302L14.4756 13.301C13.7719 12.8359 12.8754 12.6184 12.0049 12.6184ZM11.9297 6.83813C10.5735 6.83838 9.44669 7.88017 9.32129 9.21216L9.31055 9.47778C9.31055 10.9137 10.4303 12.0589 11.8936 12.1077L11.9014 12.1086H12.0186L12.0273 12.1077C13.4443 12.0584 14.5703 10.9094 14.5703 9.47778C14.5701 8.02182 13.3857 6.83813 11.9297 6.83813Z" fill="#072723" stroke="#072723"/>
</svg>
