<svg width="24" height="25" viewBox="0 0 24 25" fill="none" xmlns="http://www.w3.org/2000/svg">
<path d="M12 16.0581C9.93 16.0581 8.25 14.3781 8.25 12.3081C8.25 10.2381 9.93 8.55811 12 8.55811C14.07 8.55811 15.75 10.2381 15.75 12.3081C15.75 14.3781 14.07 16.0581 12 16.0581ZM12 10.0581C10.76 10.0581 9.75 11.0681 9.75 12.3081C9.75 13.5481 10.76 14.5581 12 14.5581C13.24 14.5581 14.25 13.5481 14.25 12.3081C14.25 11.0681 13.24 10.0581 12 10.0581Z" fill="#F2FCE7"/>
<path d="M15.21 22.4981C15 22.4981 14.79 22.4681 14.58 22.4181C13.96 22.2481 13.44 21.8581 13.11 21.3081L12.99 21.1081C12.4 20.0881 11.59 20.0881 11 21.1081L10.89 21.2981C10.56 21.8581 10.04 22.2581 9.42 22.4181C8.79 22.5881 8.14 22.4981 7.59 22.1681L5.87 21.1781C5.26 20.8281 4.82 20.2581 4.63 19.5681C4.45 18.8781 4.54 18.1681 4.89 17.5581C5.18 17.0481 5.26 16.5881 5.09 16.2981C4.92 16.0081 4.49 15.8381 3.9 15.8381C2.44 15.8381 1.25 14.6481 1.25 13.1881V11.4281C1.25 9.96815 2.44 8.77815 3.9 8.77815C4.49 8.77815 4.92 8.60815 5.09 8.31815C5.26 8.02815 5.19 7.56815 4.89 7.05815C4.54 6.44815 4.45 5.72815 4.63 5.04815C4.81 4.35815 5.25 3.78815 5.87 3.43815L7.6 2.44815C8.73 1.77815 10.22 2.16815 10.9 3.31815L11.02 3.51815C11.61 4.53815 12.42 4.53815 13.01 3.51815L13.12 3.32815C13.8 2.16815 15.29 1.77815 16.43 2.45815L18.15 3.44815C18.76 3.79815 19.2 4.36815 19.39 5.05815C19.57 5.74815 19.48 6.45815 19.13 7.06815C18.84 7.57815 18.76 8.03815 18.93 8.32815C19.1 8.61815 19.53 8.78815 20.12 8.78815C21.58 8.78815 22.77 9.97815 22.77 11.4381V13.1981C22.77 14.6581 21.58 15.8481 20.12 15.8481C19.53 15.8481 19.1 16.0181 18.93 16.3081C18.76 16.5981 18.83 17.0581 19.13 17.5681C19.48 18.1781 19.58 18.8981 19.39 19.5781C19.21 20.2681 18.77 20.8381 18.15 21.1881L16.42 22.1781C16.04 22.3881 15.63 22.4981 15.21 22.4981ZM12 18.7981C12.89 18.7981 13.72 19.3581 14.29 20.3481L14.4 20.5381C14.52 20.7481 14.72 20.8981 14.96 20.9581C15.2 21.0181 15.44 20.9881 15.64 20.8681L17.37 19.8681C17.63 19.7181 17.83 19.4681 17.91 19.1681C17.99 18.8681 17.95 18.5581 17.8 18.2981C17.23 17.3181 17.16 16.3081 17.6 15.5381C18.04 14.7681 18.95 14.3281 20.09 14.3281C20.73 14.3281 21.24 13.8181 21.24 13.1781V11.4181C21.24 10.7881 20.73 10.2681 20.09 10.2681C18.95 10.2681 18.04 9.82815 17.6 9.05815C17.16 8.28815 17.23 7.27815 17.8 6.29815C17.95 6.03815 17.99 5.72815 17.91 5.42815C17.83 5.12815 17.64 4.88815 17.38 4.72815L15.65 3.73815C15.22 3.47815 14.65 3.62815 14.39 4.06815L14.28 4.25815C13.71 5.24815 12.88 5.80815 11.99 5.80815C11.1 5.80815 10.27 5.24815 9.7 4.25815L9.59 4.05815C9.34 3.63815 8.78 3.48815 8.35 3.73815L6.62 4.73815C6.36 4.88815 6.16 5.13815 6.08 5.43815C6 5.73815 6.04 6.04815 6.19 6.30815C6.76 7.28815 6.83 8.29815 6.39 9.06815C5.95 9.83815 5.04 10.2781 3.9 10.2781C3.26 10.2781 2.75 10.7881 2.75 11.4281V13.1881C2.75 13.8181 3.26 14.3381 3.9 14.3381C5.04 14.3381 5.95 14.7781 6.39 15.5481C6.83 16.3181 6.76 17.3281 6.19 18.3081C6.04 18.5681 6 18.8781 6.08 19.1781C6.16 19.4781 6.35 19.7181 6.61 19.8781L8.34 20.8681C8.55 20.9981 8.8 21.0281 9.03 20.9681C9.27 20.9081 9.47 20.7481 9.6 20.5381L9.71 20.3481C10.28 19.3681 11.11 18.7981 12 18.7981Z" fill="#F2FCE7"/>
</svg>
