<svg width="24" height="25" viewBox="0 0 24 25" fill="none" xmlns="http://www.w3.org/2000/svg">
<path d="M14.1699 3.9541C14.5045 3.39173 15.2215 3.20423 15.7646 3.52734L15.7715 3.53223L17.502 4.52246C18.1695 4.904 18.4 5.75692 18.0156 6.42969C17.5128 7.30707 17.4074 8.21868 17.8262 8.94238C18.2451 9.66617 19.088 10.0282 20.0996 10.0283C20.8708 10.0283 21.5022 10.6625 21.5098 11.4326V13.1885C21.5095 13.9603 20.8756 14.5877 20.1104 14.5879C19.0988 14.5879 18.2547 14.9499 17.8369 15.6748C17.4452 16.3547 17.5176 17.1987 17.9473 18.0244L18.0371 18.1885C18.419 18.8497 18.1897 19.7119 17.5215 20.0938L15.792 21.084L15.7842 21.0879C15.2411 21.411 14.524 21.2245 14.1895 20.6621L14.083 20.4775C13.5748 19.6007 12.8375 19.0508 12.001 19.0508C11.2162 19.0509 10.5218 19.5346 10.0234 20.3184L9.92578 20.4795L9.82031 20.6621C9.48574 21.2245 8.76869 21.411 8.22559 21.0879L8.21875 21.084L6.48828 20.0938L6.36816 20.0166C5.79418 19.606 5.61321 18.8163 5.97363 18.1855C6.48059 17.3093 6.59021 16.399 6.17285 15.6748C5.75513 14.95 4.91173 14.588 3.90039 14.5879C3.12839 14.5879 2.50024 13.9539 2.5 13.1885V11.4277C2.50017 10.6557 3.13492 10.0283 3.90039 10.0283C4.91157 10.0282 5.75502 9.66645 6.17285 8.94336C6.59047 8.22042 6.48081 7.31207 5.97363 6.44043H5.97461C5.61354 5.80856 5.79466 5.00972 6.36816 4.59863L6.48828 4.52246L8.21875 3.53223L8.22559 3.52734C8.77184 3.20246 9.48256 3.39524 9.7959 3.94531L9.79688 3.94824L9.90723 4.13867C10.4154 5.01538 11.1519 5.56522 11.9883 5.56543C12.825 5.56543 13.5592 5.01552 14.0625 4.13867L14.1699 3.9541ZM12 8.55762C9.934 8.55762 8.25023 10.2417 8.25 12.3076C8.25 14.3738 9.93386 16.0576 12 16.0576C14.0661 16.0576 15.75 14.3738 15.75 12.3076C15.7498 10.2417 14.066 8.55762 12 8.55762Z" fill="#072723" stroke="#072723"/>
</svg>
