<svg width="24" height="25" viewBox="0 0 24 25" fill="none" xmlns="http://www.w3.org/2000/svg">
<path d="M19.775 13.0258H18.6612C19.3603 12.5779 19.9856 12.0306 20.5126 11.3931C21.8346 9.79437 22.5331 7.8465 22.5331 5.76056V3.87183C22.5331 3.48291 22.2178 3.1676 21.8291 3.1676H19.9404C18.1251 3.1676 16.3911 3.71527 14.9357 4.71466C13.5547 3.71362 11.8775 3.1676 10.1547 3.1676H8.96979C8.58105 3.1676 8.26575 3.48291 8.26575 3.87183V5.05652C8.26575 5.71899 8.34485 6.36847 8.49664 6.99451C8.39667 7.07764 8.30035 7.16498 8.20844 7.25708L1.23743 14.2279C0.439453 15.0261 0 16.087 0 17.2155C0 18.3439 0.439453 19.405 1.23743 20.203C2.0354 21.001 3.0965 21.4404 4.22498 21.4404C5.25842 21.4404 6.23474 21.0707 7.00488 20.3958C7.75305 21.0669 8.74109 21.4758 9.82288 21.4758H19.775C22.1047 21.4758 24 19.5804 24 17.2508C24 14.9211 22.1047 13.0258 19.775 13.0258ZM21.1249 4.57587V5.76056C21.1249 7.51508 20.5378 9.1524 19.4273 10.4957C18.098 12.1035 15.9999 13.0256 13.6708 13.0258L16.6937 10.0029C16.9688 9.72809 16.9688 9.28223 16.6937 9.0072C16.4187 8.73218 15.9728 8.73218 15.6978 9.0072L12.4953 12.2097C12.4482 10.455 13.0225 8.73511 14.1497 7.34094C15.5702 5.58368 17.6808 4.57587 19.9404 4.57587H21.1249ZM9.67401 4.57587H10.1547C11.4536 4.57587 12.7205 4.95087 13.799 5.64319C13.5364 5.89679 13.2874 6.16742 13.0543 6.45563C13.0063 6.51495 12.9595 6.57483 12.9133 6.63507L12.4686 6.19049C12.1937 5.91547 11.7479 5.91547 11.4728 6.19049C11.1978 6.46552 11.1978 6.91138 11.4728 7.1864L12.1315 7.84503C11.8319 8.40295 11.595 8.98798 11.4227 9.59076C10.3004 8.35791 9.67401 6.75812 9.67401 5.0567V4.57587ZM9.00201 8.45514C9.48761 9.51605 10.2034 10.4695 11.1167 11.2513C11.0662 11.8378 11.0744 12.4318 11.1429 13.0258H9.82288C9.28235 13.0258 8.76544 13.128 8.28992 13.3138L6.21661 11.2404L9.00201 8.45514ZM2.23334 19.2071C1.70123 18.6752 1.40826 17.9678 1.40826 17.2155C1.40826 16.4631 1.70123 15.7557 2.23334 15.2238L5.22089 12.2363L7.05011 14.0657C6.16077 14.8408 5.5979 15.9813 5.5979 17.2508C5.5979 17.9915 5.78961 18.6878 6.12579 19.2937C5.60541 19.7707 4.93524 20.0322 4.22498 20.0322C3.4726 20.0322 2.76526 19.7392 2.23334 19.2071ZM7.00616 17.2508C7.00616 15.6977 8.26978 14.4343 9.82288 14.4343H14.0479V20.0675H9.82288C8.26978 20.0675 7.00616 18.8039 7.00616 17.2508ZM19.775 20.0675H15.4561V14.4343H19.775C21.3281 14.4343 22.5917 15.6977 22.5917 17.2508C22.5917 18.8039 21.3281 20.0675 19.775 20.0675Z" fill="#F2FCE7"/>
</svg>
