<svg width="24" height="25" viewBox="0 0 24 25" fill="none" xmlns="http://www.w3.org/2000/svg">
<path d="M20.285 12.9366C18.9402 14.176 17.1116 14.9933 15.213 15.2835V20.7019H19.2831C21.4584 20.7019 23.2382 18.9223 23.2382 16.7468C23.2382 14.9143 21.9857 13.3718 20.285 12.9366ZM11.9436 15.4285C11.6404 15.4285 11.3504 15.3626 11.0866 15.2307C10.6911 15.033 10.3615 14.7166 10.1639 14.3079C9.96761 13.8765 9.88233 13.265 9.84731 12.7916C7.66817 12.8522 5.98438 14.631 5.98438 16.7468C5.98438 18.9639 7.80179 20.7019 9.93946 20.7019H13.8947V15.4153C13.7762 15.4285 13.6574 15.4285 13.5387 15.4285H11.9436Z" fill="#072723"/>
<path d="M13.4863 4.28821C12.9196 4.72341 12.3922 5.23743 11.9308 5.81751C10.9552 7.01722 10.296 8.41482 9.99268 9.89125C9.01709 8.58607 8.47656 7.00404 8.47656 5.32985V4.22229C8.47656 3.85301 8.76674 3.56311 9.13574 3.56311H10.2433C11.3771 3.56311 12.4845 3.8136 13.4863 4.28821Z" fill="#072723"/>
<path d="M21.1722 3.56311H19.4055C16.8875 3.56311 14.5407 4.68372 12.9586 6.63503C11.3965 8.58525 10.8421 10.9871 11.2447 13.2268C11.493 12.9787 15.5727 8.89904 15.4373 9.03445C15.6744 8.77078 16.1228 8.77064 16.3601 9.03445C16.6238 9.27148 16.6239 9.71986 16.3601 9.95717C16.2265 10.0907 12.0418 14.2756 12.2073 14.1101C15.0729 14.1101 17.7327 13.8988 19.9461 11.2625C21.1723 9.77273 21.8315 7.94007 21.8315 5.98903V4.22229C21.8313 3.85301 21.5414 3.56311 21.1722 3.56311Z" fill="#072723"/>
<path d="M6.40659 12.8313C5.33858 13.7937 4.66635 15.191 4.66635 16.7469C4.66635 18.1179 5.19369 19.4233 6.12987 20.3855C5.66844 20.5701 5.18051 20.6625 4.69272 20.6625C3.67744 20.6625 2.65983 20.2802 1.89504 19.5154C0.352695 17.9729 0.352695 15.4547 1.89504 13.9122L4.7059 11.1041L6.40659 12.8313Z" fill="#072723"/>
<path d="M9.63686 11.4865C8.87208 11.5261 8.14698 11.7371 7.5143 12.0667L5.62891 10.1813L7.61963 8.19055C8.04165 9.41677 8.71401 10.5506 9.63686 11.4865Z" fill="#072723"/>
</svg>
