<svg width="45" height="44" viewBox="0 0 45 44" fill="none" xmlns="http://www.w3.org/2000/svg">
<rect x="0.799927" width="44" height="44" rx="22" fill="#F2FCE7"/>
<g clip-path="url(#clip0_28_4764)">
<path d="M30.575 22.7176H29.4611C30.1602 22.2697 30.7855 21.7224 31.3125 21.0848C32.6345 19.4861 33.3331 17.5383 33.3331 15.4523V13.5636C33.3331 13.1747 33.0178 12.8594 32.629 12.8594H30.7403C28.925 12.8594 27.191 13.407 25.7357 14.4064C24.3547 13.4054 22.6774 12.8594 20.9546 12.8594H19.7697C19.381 12.8594 19.0657 13.1747 19.0657 13.5636V14.7483C19.0657 15.4108 19.1448 16.0602 19.2966 16.6863C19.1966 16.7694 19.1003 16.8568 19.0084 16.9489L12.0374 23.9197C11.2394 24.7178 10.7999 25.7787 10.7999 26.9072C10.7999 28.0357 11.2394 29.0968 12.0374 29.8948C12.8353 30.6927 13.8964 31.1322 15.0249 31.1322C16.0583 31.1322 17.0347 30.7625 17.8048 30.0876C18.553 30.7587 19.541 31.1675 20.6228 31.1675H30.575C32.9046 31.1675 34.7999 29.2722 34.7999 26.9426C34.7999 24.6129 32.9046 22.7176 30.575 22.7176ZM31.9248 14.2676V15.4523C31.9248 17.2068 31.3378 18.8442 30.2272 20.1874C28.8979 21.7953 26.7999 22.7174 24.4708 22.7176L27.4937 19.6947C27.7687 19.4199 27.7687 18.974 27.4937 18.699C27.2186 18.424 26.7728 18.424 26.4977 18.699L23.2952 21.9015C23.2482 20.1468 23.8224 18.4269 24.9496 17.0327C26.3701 15.2755 28.4808 14.2676 30.7403 14.2676H31.9248ZM20.4739 14.2676H20.9546C22.2535 14.2676 23.5204 14.6426 24.5989 15.335C24.3364 15.5886 24.0873 15.8592 23.8542 16.1474C23.8063 16.2067 23.7594 16.2666 23.7133 16.3268L23.2685 15.8823C22.9937 15.6072 22.5478 15.6072 22.2728 15.8823C21.9977 16.1573 21.9977 16.6031 22.2728 16.8782L22.9314 17.5368C22.6318 18.0947 22.3949 18.6797 22.2226 19.2825C21.1003 18.0497 20.4739 16.4499 20.4739 14.7485V14.2676ZM19.8019 18.1469C20.2875 19.2078 21.0033 20.1613 21.9166 20.9431C21.8661 21.5296 21.8743 22.1236 21.9428 22.7176H20.6228C20.0823 22.7176 19.5654 22.8198 19.0898 23.0056L17.0165 20.9321L19.8019 18.1469ZM13.0333 28.8989C12.5012 28.3669 12.2082 27.6596 12.2082 26.9072C12.2082 26.1548 12.5012 25.4475 13.0333 24.9156L16.0208 21.928L17.85 23.7574C16.9607 24.5325 16.3978 25.6731 16.3978 26.9426C16.3978 27.6832 16.5895 28.3796 16.9257 28.9855C16.4053 29.4625 15.7352 29.7239 15.0249 29.7239C14.2725 29.7239 13.5652 29.431 13.0333 28.8989ZM17.8061 26.9426C17.8061 25.3895 19.0697 24.126 20.6228 24.126H24.8478V29.7593H20.6228C19.0697 29.7593 17.8061 28.4957 17.8061 26.9426ZM30.575 29.7593H26.256V24.126H30.575C32.1281 24.126 33.3917 25.3895 33.3917 26.9426C33.3917 28.4957 32.1281 29.7593 30.575 29.7593Z" fill="#072723"/>
</g>
<defs>
<clipPath id="clip0_28_4764">
<rect width="24" height="24" fill="white" transform="translate(10.7999 10)"/>
</clipPath>
</defs>
</svg>
