<svg width="44" height="44" viewBox="0 0 44 44" fill="none" xmlns="http://www.w3.org/2000/svg">
<rect width="44" height="44" rx="22" fill="#F2FCE7"/>
<path d="M27 25.1974C28.2133 25.8069 29.2534 26.785 30.0127 28.008C30.1631 28.2502 30.2382 28.3713 30.2642 28.539C30.3171 28.8798 30.084 29.2988 29.7666 29.4336C29.6104 29.5 29.4347 29.5 29.0833 29.5M25.3333 21.6102C26.5681 20.9966 27.4167 19.7224 27.4167 18.25C27.4167 16.7776 26.5681 15.5034 25.3333 14.8898M23.6667 18.25C23.6667 20.3211 21.9877 22 19.9167 22C17.8456 22 16.1667 20.3211 16.1667 18.25C16.1667 16.1789 17.8456 14.5 19.9167 14.5C21.9877 14.5 23.6667 16.1789 23.6667 18.25ZM14.1327 27.782C15.4613 25.7871 17.5578 24.5 19.9167 24.5C22.2755 24.5 24.3721 25.7871 25.7006 27.782C25.9917 28.219 26.1372 28.4375 26.1205 28.7166C26.1074 28.9339 25.965 29.2 25.7913 29.3313C25.5683 29.5 25.2615 29.5 24.648 29.5H15.1853C14.5718 29.5 14.2651 29.5 14.042 29.3313C13.8684 29.2 13.7259 28.9339 13.7129 28.7166C13.6961 28.4375 13.8416 28.219 14.1327 27.782Z" stroke="#072723" stroke-width="1.5" stroke-linecap="round" stroke-linejoin="round"/>
</svg>
