<svg width="24" height="25" viewBox="0 0 24 25" fill="none" xmlns="http://www.w3.org/2000/svg">
<path d="M12.1601 11.1782C12.0601 11.1682 11.9401 11.1682 11.8301 11.1782C9.45006 11.0982 7.56006 9.14823 7.56006 6.74823C7.56006 4.29823 9.54006 2.30823 12.0001 2.30823C14.4501 2.30823 16.4401 4.29823 16.4401 6.74823C16.4301 9.14823 14.5401 11.0982 12.1601 11.1782Z" stroke="#F2FCE7" stroke-width="1.5" stroke-linecap="round" stroke-linejoin="round"/>
<path d="M7.16021 14.8682C4.74021 16.4882 4.74021 19.1282 7.16021 20.7382C9.91021 22.5782 14.4202 22.5782 17.1702 20.7382C19.5902 19.1182 19.5902 16.4782 17.1702 14.8682C14.4302 13.0382 9.92021 13.0382 7.16021 14.8682Z" stroke="#F2FCE7" stroke-width="1.5" stroke-linecap="round" stroke-linejoin="round"/>
</svg>
