<svg width="24" height="25" viewBox="0 0 24 25" fill="none" xmlns="http://www.w3.org/2000/svg">
<path d="M12 2.30823C9.38 2.30823 7.25 4.43823 7.25 7.05823C7.25 9.62823 9.26 11.7082 11.88 11.7982C11.96 11.7882 12.04 11.7882 12.1 11.7982C12.12 11.7982 12.13 11.7982 12.15 11.7982C12.16 11.7982 12.16 11.7982 12.17 11.7982C14.73 11.7082 16.74 9.62823 16.75 7.05823C16.75 4.43823 14.62 2.30823 12 2.30823Z" fill="#072723"/>
<path d="M17.08 14.4582C14.29 12.5982 9.73996 12.5982 6.92996 14.4582C5.65996 15.3082 4.95996 16.4582 4.95996 17.6882C4.95996 18.9182 5.65996 20.0582 6.91996 20.8982C8.31996 21.8382 10.16 22.3082 12 22.3082C13.84 22.3082 15.68 21.8382 17.08 20.8982C18.34 20.0482 19.04 18.9082 19.04 17.6682C19.03 16.4382 18.34 15.2982 17.08 14.4582Z" fill="#072723"/>
</svg>
